<svg width="62" height="47" viewBox="0 0 62 47" fill="none" xmlns="http://www.w3.org/2000/svg">
<path d="M0.661817 31.3181C-4.74544 13.2943 24.4158 -8.39038 35.9945 5.04437C43.6514 13.9269 43.0844 35.2168 31.9835 43.4715C20.8826 51.7263 4.23619 43.2365 0.661817 31.3181Z" fill="url(#paint0_linear_1_527)"/>
<path d="M0.661817 31.3181C-4.74544 13.2943 24.4158 -8.39038 35.9945 5.04437C43.6514 13.9269 43.0844 35.2168 31.9835 43.4715C20.8826 51.7263 4.23619 43.2365 0.661817 31.3181Z" fill="white" fill-opacity="0.5"/>
<path d="M21.5701 19.8997C21.2814 16.5997 23.7226 13.6904 27.0226 13.4017L50.5474 11.3435C53.8475 11.0548 56.7567 13.496 57.0454 16.796L57.7118 24.4126C58.0005 27.7126 55.5594 30.6219 52.2593 30.9106L28.7345 32.9688C25.4345 33.2575 22.5252 30.8163 22.2365 27.5163L21.5701 19.8997Z" stroke="#21201F" stroke-width="2.71475"/>
<defs>
<linearGradient id="paint0_linear_1_527" x1="39.9383" y1="11.5671" x2="0.943766" y2="32.622" gradientUnits="userSpaceOnUse">
<stop stop-color="#FF5C4D"/>
<stop offset="0.25" stop-color="#EB469F"/>
<stop offset="0.72" stop-color="#8341EF"/>
<stop offset="1" stop-color="#3F68F9"/>
</linearGradient>
</defs>
</svg>
