<svg width="73" height="59" viewBox="0 0 73 59" fill="none" xmlns="http://www.w3.org/2000/svg">
<path d="M5.06453 51.8352C-8.85806 36.5349 9.79026 3.66752 21.8591 0.929024C33.9609 -1.83942 61.2127 28.2415 57.3544 39.937C53.4925 51.6946 19.0164 67.1678 5.06453 51.8352Z" fill="url(#paint0_linear_516_48)"/>
<path d="M5.06453 51.8352C-8.85806 36.5349 9.79026 3.66752 21.8591 0.929024C33.9609 -1.83942 61.2127 28.2415 57.3544 39.937C53.4925 51.6946 19.0164 67.1678 5.06453 51.8352Z" fill="white" fill-opacity="0.5"/>
<path d="M27.4003 48.5716C25.7103 48.4554 24.1602 47.9992 22.7501 47.2031C21.3753 46.3761 20.209 45.1806 19.2512 43.6165C18.3288 42.0216 17.6479 40.0604 17.2087 37.733C16.7717 35.3724 16.6626 32.6016 16.8814 29.4204C17.1001 26.2393 17.5863 23.5261 18.34 21.2806C19.096 19.0021 20.0388 17.1526 21.1686 15.732C22.3315 14.3138 23.6493 13.3057 25.1221 12.7079C26.6279 12.1122 28.2259 11.8725 29.9158 11.9887C31.6058 12.105 33.1393 12.56 34.5163 13.3538C35.8933 14.1477 37.0442 15.3255 37.9689 16.8873C38.8959 18.4159 39.5624 20.3428 39.9685 22.668C40.4078 24.9955 40.518 27.7497 40.2993 30.9309C40.0805 34.112 39.5932 36.8418 38.8372 39.1204C38.1167 41.3681 37.1904 43.2187 36.0583 44.6724C34.9263 46.126 33.6227 47.1684 32.1477 47.7994C30.6727 48.4304 29.0902 48.6878 27.4003 48.5716ZM27.6206 44.6415C28.7472 44.719 29.7584 44.5388 30.6541 44.101C31.5499 43.6632 32.3347 42.9015 33.0086 41.8158C33.6826 40.7302 34.2313 39.2864 34.6549 37.4844C35.1138 35.6515 35.4345 33.4096 35.6167 30.7587C35.799 28.1078 35.8037 25.8608 35.6308 24.0178C35.4602 22.1416 35.1154 20.6197 34.5964 19.452C34.0774 18.2844 33.4042 17.4224 32.5768 16.8661C31.7495 16.3098 30.7725 15.9929 29.6458 15.9154C28.5192 15.838 27.4914 16.017 26.5625 16.4525C25.6668 16.8903 24.8654 17.6509 24.1583 18.7343C23.4844 19.8199 22.918 21.2791 22.459 23.112C22.0354 24.914 21.7325 27.1405 21.5502 29.7914C21.3679 32.4424 21.3621 34.7059 21.5327 36.5821C21.7388 38.4274 22.1013 39.9339 22.6203 41.1015C23.1393 42.2692 23.8125 43.1311 24.6398 43.6874C25.5004 44.246 26.4939 44.564 27.6206 44.6415Z" fill="#21201F"/>
<path d="M51.3102 29.99L52.4107 13.985L60.8109 14.5627C64.5222 14.8179 67.3493 15.8279 69.2921 17.5929C71.268 19.3602 72.1432 21.884 71.9177 25.1646C71.8014 26.8545 71.403 28.292 70.7222 29.4771C70.0746 30.6644 69.1766 31.6181 68.0285 32.3382C66.9157 33.0274 65.6 33.5196 64.0815 33.8147C62.5653 34.0767 60.896 34.145 59.0734 34.0197L55.7432 33.7907L55.4527 38.0156L65.841 38.7299L65.6018 42.2093L55.2134 41.4949L54.6324 49.9448L49.9601 49.6235L50.5412 41.1737L46.4654 40.8934L46.7046 37.414L50.7804 37.6943L51.0709 33.4694L46.9951 33.1891L47.2344 29.7098L51.3102 29.99ZM56.8062 18.3324L55.9825 30.3113L59.3127 30.5403C61.7317 30.7067 63.6049 30.3361 64.9325 29.4285C66.2954 28.4902 67.0498 26.9606 67.1957 24.8399C67.3301 22.8848 66.8659 21.4046 65.8031 20.3993C64.7756 19.3632 63.0193 18.7596 60.534 18.5888L56.8062 18.3324Z" fill="#21201F"/>
<defs>
<linearGradient id="paint0_linear_516_48" x1="5.07898" y1="51.8514" x2="45.5806" y2="14.997" gradientUnits="userSpaceOnUse">
<stop stop-color="#FF5C4D"/>
<stop offset="0.25" stop-color="#EB469F"/>
<stop offset="0.72" stop-color="#8341EF"/>
<stop offset="1" stop-color="#3F68F9"/>
</linearGradient>
</defs>
</svg>
