<svg width="56" height="47" viewBox="0 0 56 47" fill="none" xmlns="http://www.w3.org/2000/svg">
<path d="M4.46533 41.7572C-8.10204 29.2507 8.73106 2.38479 19.6252 0.146335C30.549 -2.1166 55.148 22.4716 51.6653 32.0316C48.1794 41.6423 17.0592 54.2902 4.46533 41.7572Z" fill="url(#paint0_linear_1_508)"/>
<path d="M4.46533 41.7572C-8.10204 29.2507 8.73106 2.38479 19.6252 0.146335C30.549 -2.1166 55.148 22.4716 51.6653 32.0316C48.1794 41.6423 17.0592 54.2902 4.46533 41.7572Z" fill="white" fill-opacity="0.5"/>
<path d="M16.2055 40.4028C14.7075 40.2997 13.3334 39.8954 12.0834 39.1897C10.8648 38.4566 9.83095 37.3968 8.98189 36.0104C8.16423 34.5966 7.56071 32.8582 7.17136 30.795C6.78402 28.7025 6.68731 26.2463 6.88121 23.4265C7.07511 20.6066 7.50611 18.2015 8.1742 16.2111C8.84431 14.1913 9.6801 12.5518 10.6816 11.2926C11.7124 10.0355 12.8806 9.14188 14.186 8.61188C15.5209 8.08391 16.9373 7.87143 18.4354 7.97444C19.9334 8.07745 21.2928 8.48081 22.5134 9.1845C23.7341 9.8882 24.7542 10.9323 25.5739 12.3167C26.3956 13.6717 26.9865 15.3798 27.3465 17.4409C27.7358 19.504 27.8335 21.9455 27.6396 24.7654C27.4457 27.5852 27.0137 30.005 26.3436 32.0248C25.7049 34.0173 24.8838 35.6578 23.8803 36.9463C22.8768 38.2349 21.7213 39.1589 20.4138 39.7182C19.1063 40.2776 17.7036 40.5058 16.2055 40.4028ZM16.4008 36.919C17.3995 36.9876 18.2959 36.8279 19.0899 36.4399C19.8839 36.0518 20.5796 35.3766 21.177 34.4142C21.7744 33.4519 22.2608 32.172 22.6362 30.5747C23.0431 28.9499 23.3273 26.9626 23.4889 24.6128C23.6505 22.2629 23.6546 20.2711 23.5014 18.6374C23.3501 16.9743 23.0444 15.6252 22.5844 14.5901C22.1244 13.5551 21.5276 12.791 20.7942 12.2979C20.0608 11.8048 19.1947 11.5239 18.196 11.4552C17.1973 11.3865 16.2863 11.5452 15.4629 11.9313C14.6689 12.3194 13.9585 12.9936 13.3318 13.9539C12.7344 14.9162 12.2322 16.2098 11.8254 17.8345C11.4499 19.4319 11.1814 21.4055 11.0198 23.7554C10.8583 26.1052 10.8531 28.1117 11.0043 29.7748C11.187 31.4105 11.5083 32.7459 11.9684 33.781C12.4284 34.8161 13.0252 35.5801 13.7586 36.0733C14.5214 36.5684 15.4021 36.8503 16.4008 36.919Z" fill="#21201F"/>
<path d="M37.4001 23.9314L38.3757 9.74402L45.8218 10.256C49.1117 10.4823 51.6177 11.3776 53.3399 12.9422C55.0914 14.5087 55.8672 16.746 55.6673 19.6539C55.5642 21.152 55.211 22.4262 54.6076 23.4767C54.0335 24.5292 53.2375 25.3746 52.2197 26.0129C51.2333 26.6239 50.0671 27.0601 48.721 27.3217C47.377 27.5539 45.8972 27.6145 44.2817 27.5034L41.3297 27.3004L41.0721 31.0455L50.2807 31.6787L50.0686 34.763L40.8601 34.1297L40.345 41.62L36.2033 41.3352L36.7184 33.845L33.1055 33.5965L33.3175 30.5123L36.9305 30.7607L37.188 27.0156L33.5751 26.7672L33.7871 23.683L37.4001 23.9314ZM42.2719 13.5977L41.5417 24.2162L44.4938 24.4192C46.638 24.5666 48.2986 24.2381 49.4754 23.4337C50.6835 22.6019 51.3523 21.246 51.4815 19.3661C51.6007 17.6331 51.1892 16.321 50.2471 15.4299C49.3363 14.5114 47.7794 13.9764 45.5764 13.8249L42.2719 13.5977Z" fill="#21201F"/>
<defs>
<linearGradient id="paint0_linear_1_508" x1="4.47837" y1="41.7705" x2="37.7317" y2="8.35556" gradientUnits="userSpaceOnUse">
<stop stop-color="#FF5C4D"/>
<stop offset="0.25" stop-color="#EB469F"/>
<stop offset="0.72" stop-color="#8341EF"/>
<stop offset="1" stop-color="#3F68F9"/>
</linearGradient>
</defs>
</svg>
